# xmcd
#
# Track frame offsets: 
#        150
#        24335
#        48150
#        64237
#        89172
#        113665
#        132717
#        157142
#        171270
#        188020
#
# Disc length: 2764 seconds
#
# Revision: 1
# Processed by: cddbd v1.5.2PL0 Copyright (c) Steve Scherf et al.
# Submitted via: ExactAudioCopy v0.99pb5
#
DISCID=8b0aca0a
DTITLE=Tom Howard - Beyond The Barriers
DYEAR=1991
DGENRE=Instrumental
TTITLE0=Driving Through The Rain
TTITLE1=From This Old Steeple
TTITLE2=Dancing Out Of Bounds
TTITLE3=October Dawn
TTITLE4=A Whisper Through The Veil
TTITLE5=Joseph's Magical Parade
TTITLE6=This Time Of The Night
TTITLE7=Long For You
TTITLE8=Within The Silent Room
TTITLE9=Wayfaring Stranger
EXTD=
EXTT0=
EXTT1=
EXTT2=
EXTT3=
EXTT4=
EXTT5=
EXTT6=
EXTT7=
EXTT8=
EXTT9=
PLAYORDER=
